<svg width="512" height="512" viewBox="0 0 512 512" fill="none" xmlns="http://www.w3.org/2000/svg">
<rect width="512" height="512" rx="96" fill="#18181A"/>
<g transform="translate(36, 60) scale(1.12)">
<path d="M437.233 290.826C434.925 297.728 427.84 300.311 420.938 298.003C414.036 295.694 409.776 291.926 412.084 285.024C414.392 278.122 422.013 271.842 428.915 274.15C435.817 276.458 439.541 283.924 437.233 290.826Z" fill="#C1EF1C"/>
<path d="M453.781 256.931C456.585 255.473 459.576 256.805 461.034 259.609C462.492 262.412 462.685 264.874 459.882 266.332C457.078 267.79 452.803 267.451 451.345 264.648C449.887 261.844 450.978 258.39 453.781 256.931Z" fill="#C1EF1C"/>
<path d="M214.91 232.099C219.893 269.194 193.861 303.305 156.766 308.288C136.868 310.961 121.329 300.627 107.183 288.532C94.9574 278.078 82.8869 267.341 80.5768 250.144C75.5939 213.049 101.626 178.938 138.721 173.955C175.816 168.972 209.927 195.004 214.91 232.099Z" fill="#C1EF1C"/>
<path d="M425.483 42.2502C429.082 69.041 410.281 93.6768 383.49 97.2756C356.7 100.874 332.064 82.0735 328.465 55.2826C324.866 28.4917 343.667 3.85604 370.458 0.257234C383.416 -1.48342 392.37 5.92292 402.183 13.0322C412.659 20.6214 423.625 28.4174 425.483 42.2502Z" fill="#C1EF1C"/>
<path d="M355.908 259.585C358.746 280.709 343.922 300.133 322.798 302.971C311.982 304.424 304.787 301.54 294.685 293.532C283.685 284.813 280.797 280.169 279.413 269.861C276.575 248.737 291.399 229.313 312.523 226.476C333.646 223.638 353.071 238.462 355.908 259.585Z" fill="#C1EF1C"/>
<path d="M459.8 194.494C461.86 209.831 451.097 223.935 435.759 225.995C420.422 228.056 406.318 217.292 404.258 201.955C402.197 186.617 412.961 172.513 428.298 170.453C443.636 168.393 457.74 179.156 459.8 194.494Z" fill="#C1EF1C"/>
<path d="M364.105 1.40072C287.986 27.8406 168.74 109.367 99.7926 191.292L193.917 291.058L417.743 76.5375L364.105 1.40072Z" fill="#C1EF1C"/>
<path d="M346.398 12.039C307.586 108.781 290.02 167.969 279.458 259.516L353.876 279.8C362.046 198.458 374.854 152.338 421.404 68.4427L346.398 12.039Z" fill="#C1EF1C"/>
<path d="M446.484 222.351C395.669 247.174 374.398 262.035 343.662 293.204L286.667 246.097C332.682 215.649 360.253 199.239 418.875 173.405L446.484 222.351Z" fill="#C1EF1C"/>
<path d="M206.152 216.701L80.0249 243.993C80.0249 207.911 73.4362 131.612 50.8462 145.166C34.6469 154.885 12.1058 150.904 3.68347 137.532C-2.57533 127.595 -2.06813 117.997 14.7852 97.5324C54.3176 49.5288 112.969 34.0947 144.971 57.6297C184.516 86.7117 201.76 169.952 206.152 216.701Z" fill="#C1EF1C"/>
<path d="M437.533 289.939L459.984 201.279L408.154 199.722L411.637 290.211L437.533 289.939Z" fill="#C1EF1C"/>
<path d="M453.42 257.119L419.655 278.022L435.366 294.149L461.587 264.849L453.42 257.119Z" fill="#C1EF1C"/>
</g>
</svg>
